<svg width="22" height="19" viewBox="0 0 22 19" fill="none" xmlns="http://www.w3.org/2000/svg">
<path d="M16.6737 19C14.5847 19 12.8912 17.3065 12.8912 15.2175V12.5141C12.8912 9.15662 13.6632 6.40964 15.207 4.27309C16.3816 2.60883 17.9733 1.38628 19.9821 0.605429C20.9909 0.213279 22 1.02621 22 2.10856C22 2.88691 21.4585 3.54284 20.743 3.84925C19.7224 4.28633 18.932 4.91088 18.3719 5.72289C17.9045 6.3698 17.5408 7.12865 17.2809 7.99942C16.9947 8.95873 17.788 9.84337 18.7892 9.84337C19.7098 9.84337 20.4561 10.5897 20.4561 11.5104V15.2175C20.4561 17.3065 18.7627 19 16.6737 19ZM3.74386 19C1.67618 19 0 17.3238 0 15.2561V12.5141C0 9.15662 0.746199 6.40964 2.2386 4.27309C3.41208 2.61045 5.00181 1.38865 7.00778 0.607704C8.0194 0.213872 9.03158 1.02927 9.03158 2.11485C9.03158 2.89078 8.49485 3.54633 7.78443 3.85839C6.79042 4.29503 5.99678 4.91653 5.40351 5.72289C4.92598 6.38374 4.56661 7.1614 4.32541 8.05586C4.07152 8.99737 4.85543 9.84337 5.83057 9.84337C6.74579 9.84337 7.48772 10.5853 7.48772 11.5005V15.2561C7.48772 17.3238 5.81154 19 3.74386 19Z" fill="#435334"/>
</svg>
