<svg width="82" height="82" viewBox="0 0 82 82" fill="none" xmlns="http://www.w3.org/2000/svg">
<path d="M63.6364 2.27528C63.6364 1.48672 63.2557 0.754385 62.6303 0.339814C62.005 -0.0747575 61.2241 -0.112445 60.5665 0.24021L26.6271 18.4425C25.9085 18.8279 25.4545 19.6157 25.4545 20.4775V34.7646L1.45043 43.3471C0.584246 43.6568 0 44.5263 0 45.5056V70.5337C0 71.7903 0.949699 72.809 2.12121 72.809H40.303C41.4745 72.809 42.4242 71.7903 42.4242 70.5337V63.7079H46.6667V70.5337C46.6667 71.7903 47.6164 72.809 48.7879 72.809H61.5152C62.6867 72.809 63.6364 71.7903 63.6364 70.5337V2.27528ZM8.48485 50.0562H12.7273V54.6067H8.48485V50.0562ZM16.9697 50.0562H21.2121V54.6067H16.9697V50.0562ZM12.7273 59.1573V63.7079H8.48485V59.1573H12.7273ZM16.9697 59.1573H21.2121V63.7079H16.9697V59.1573ZM55.1515 13.6517V18.2022H50.9091V13.6517H55.1515ZM33.9394 22.7528H38.1818V27.3034H33.9394V22.7528ZM38.1818 31.8539V36.4045H33.9394V31.8539H38.1818ZM33.9394 40.9551H38.1818V45.5056H33.9394V40.9551ZM42.4242 40.9551H46.6667V45.5056H42.4242V40.9551ZM38.1818 50.0562V54.6067H33.9394V50.0562H38.1818ZM42.4242 50.0562H46.6667V54.6067H42.4242V50.0562ZM55.1515 40.9551V45.5056H50.9091V40.9551H55.1515ZM50.9091 50.0562H55.1515V54.6067H50.9091V50.0562ZM42.4242 31.8539H46.6667V36.4045H42.4242V31.8539ZM55.1515 31.8539V36.4045H50.9091V31.8539H55.1515ZM46.6667 22.7528V27.3034H42.4242V22.7528H46.6667ZM50.9091 22.7528H55.1515V27.3034H50.9091V22.7528Z" fill="#435334"/>
<path d="M59.8605 54.6704C58.3487 54.6704 57.1821 55.9293 57.1821 57.4083V59.1461C57.1821 60.5721 58.2667 61.7936 59.6996 61.8791V76.5244C59.6996 78.9631 61.6176 81 64.0563 81H74.1262C76.5648 81 78.4828 78.9631 78.4828 76.5244V61.8791C79.9157 61.7936 81.0003 60.5721 81.0003 59.1461V57.4083C81.0003 55.9293 79.8337 54.6704 78.322 54.6704H73.2625C72.8759 53.6658 71.9232 52.9326 70.7695 52.9326H67.4129C66.2592 52.9326 65.3065 53.6658 64.92 54.6704H59.8605Z" fill="#435334" stroke="white" stroke-width="2"/>
</svg>
