<svg width="80" height="80" viewBox="0 0 80 80" fill="none" xmlns="http://www.w3.org/2000/svg">
<path d="M35 80C35 80 30 80 30 73.3333C30 66.6667 35 46.6667 55 46.6667C75 46.6667 80 66.6667 80 73.3333C80 80 75 80 75 80H35Z" fill="#435334"/>
<path d="M55 40C63.2843 40 70 31.0457 70 20C70 8.95431 63.2843 0 55 0C46.7157 0 40 8.95431 40 20C40 31.0457 46.7157 40 55 40Z" fill="#435334"/>
<path d="M26.0818 80C25.3778 78.1061 25 75.8609 25 73.3333C25 64.297 28.3953 55.0037 34.6797 48.5331C31.9305 47.3606 28.7255 46.6667 25 46.6667C5 46.6667 0 66.6667 0 73.3333C0 80 5 80 5 80H26.0818Z" fill="#435334"/>
<path d="M22.5 40C29.4036 40 35 32.5381 35 23.3333C35 14.1286 29.4036 6.66667 22.5 6.66667C15.5964 6.66667 10 14.1286 10 23.3333C10 32.5381 15.5964 40 22.5 40Z" fill="#435334"/>
</svg>
