<svg width="82" height="82" viewBox="0 0 82 82" fill="none" xmlns="http://www.w3.org/2000/svg">
<path d="M7.15385 5.83333C3.5486 5.83333 0.5 8.38023 0.5 11.6667V17C0.5 20.2864 3.5486 22.8333 7.15385 22.8333H9.73077V70.3333C9.73077 76.5653 15.5345 81.5 22.5385 81.5H59.4615C66.4655 81.5 72.2692 76.5653 72.2692 70.3333V22.8333H74.8462C78.4514 22.8333 81.5 20.2864 81.5 17V11.6667C81.5 8.38023 78.4514 5.83333 74.8462 5.83333H53.7839C53.4933 2.79214 50.574 0.5 47.1538 0.5H34.8462C31.426 0.5 28.5068 2.79214 28.2161 5.83333H7.15385ZM25.6154 28.1667C27.1082 28.1667 28.1923 29.2015 28.1923 30.3333V67.6667C28.1923 68.7985 27.1081 69.8333 25.6154 69.8333C24.1226 69.8333 23.0385 68.7985 23.0385 67.6667L23.0385 30.3333C23.0385 29.2015 24.1226 28.1667 25.6154 28.1667ZM41 28.1667C42.4928 28.1667 43.5769 29.2015 43.5769 30.3333V67.6667C43.5769 68.7985 42.4928 69.8333 41 69.8333C39.5072 69.8333 38.4231 68.7985 38.4231 67.6667V30.3333C38.4231 29.2015 39.5072 28.1667 41 28.1667ZM56.3846 28.1667C57.8774 28.1667 58.9615 29.2015 58.9615 30.3333V67.6667C58.9615 68.7985 57.8774 69.8333 56.3846 69.8333C54.8919 69.8333 53.8077 68.7985 53.8077 67.6667V30.3333C53.8077 29.2015 54.8919 28.1667 56.3846 28.1667Z" fill="#435334" stroke="white"/>
</svg>
