<svg width="51" height="56" viewBox="0 0 51 56" fill="none" xmlns="http://www.w3.org/2000/svg">
<path d="M4.76923 4.1C2.43329 4.1 0.5 5.91424 0.5 8.2V11.8C0.5 14.0858 2.43329 15.9 4.76923 15.9H6.15385V47.8C6.15385 52.074 9.77468 55.5 14.1923 55.5H36.8077C41.2253 55.5 44.8462 52.074 44.8462 47.8V15.9H46.2308C48.5667 15.9 50.5 14.0858 50.5 11.8V8.2C50.5 5.91424 48.5667 4.1 46.2308 4.1H33.5072C33.2496 2.05523 31.432 0.5 29.2692 0.5H21.7308C19.568 0.5 17.7504 2.05523 17.4928 4.1H4.76923ZM16.0769 19.5C16.8635 19.5 17.4615 20.1034 17.4615 20.8V46C17.4615 46.6966 16.8635 47.3 16.0769 47.3C15.2903 47.3 14.6923 46.6966 14.6923 46V20.8C14.6923 20.1034 15.2903 19.5 16.0769 19.5ZM25.5 19.5C26.2866 19.5 26.8846 20.1034 26.8846 20.8V46C26.8846 46.6966 26.2866 47.3 25.5 47.3C24.7134 47.3 24.1154 46.6966 24.1154 46V20.8C24.1154 20.1034 24.7134 19.5 25.5 19.5ZM36.3077 20.8V46C36.3077 46.6966 35.7097 47.3 34.9231 47.3C34.1365 47.3 33.5385 46.6966 33.5385 46V20.8C33.5385 20.1034 34.1365 19.5 34.9231 19.5C35.7097 19.5 36.3077 20.1034 36.3077 20.8Z" fill="#435334" stroke="white"/>
</svg>
