<svg width="15" height="15" viewBox="0 0 15 15" fill="none" xmlns="http://www.w3.org/2000/svg">
<path d="M7.68264 0C5.69512 0 5.44569 0.00869048 4.66508 0.0442142C3.88599 0.0798903 3.35419 0.203232 2.88887 0.384205C2.40755 0.571123 1.99925 0.821161 1.59247 1.22808C1.1854 1.63485 0.935356 2.04314 0.747826 2.52432C0.566394 2.98978 0.442898 3.52172 0.407831 4.3005C0.372917 5.08111 0.36377 5.33069 0.36377 7.31818C0.36377 9.30568 0.372613 9.55434 0.407984 10.335C0.443813 11.114 0.567156 11.6458 0.747978 12.1111C0.935051 12.5925 1.18509 13.0008 1.59202 13.4075C1.99864 13.8146 2.40694 14.0652 2.88796 14.2522C3.35358 14.4331 3.88553 14.5565 4.66447 14.5921C5.44508 14.6277 5.69436 14.6364 7.68172 14.6364C9.66939 14.6364 9.91806 14.6277 10.6987 14.5921C11.4778 14.5565 12.0102 14.4331 12.4758 14.2522C12.957 14.0652 13.3647 13.8146 13.7713 13.4075C14.1784 13.0008 14.4284 12.5925 14.6159 12.1113C14.7958 11.6458 14.9193 11.1139 14.9559 10.3351C14.991 9.5545 15.0001 9.30568 15.0001 7.31818C15.0001 5.33069 14.991 5.08126 14.9559 4.30065C14.9193 3.52157 14.7958 2.98978 14.6159 2.52447C14.4284 2.04314 14.1784 1.63485 13.7713 1.22808C13.3642 0.821009 12.9571 0.570971 12.4753 0.384205C12.0088 0.203232 11.4767 0.0798903 10.6976 0.0442142C9.91699 0.00869048 9.66848 0 7.68035 0H7.68264ZM7.02613 1.3188C7.22098 1.31849 7.43839 1.3188 7.68264 1.3188C9.63661 1.3188 9.86821 1.32581 10.6398 1.36088C11.3534 1.3935 11.7406 1.51273 11.9986 1.6129C12.3401 1.74554 12.5836 1.9041 12.8396 2.16024C13.0957 2.41637 13.2543 2.66031 13.3872 3.00183C13.4874 3.25949 13.6068 3.64674 13.6392 4.36026C13.6743 5.13172 13.6819 5.36346 13.6819 7.3165C13.6819 9.26954 13.6743 9.50129 13.6392 10.2727C13.6066 10.9863 13.4874 11.3735 13.3872 11.6312C13.2546 11.9727 13.0957 12.2159 12.8396 12.4719C12.5834 12.728 12.3403 12.8866 11.9986 13.0192C11.7409 13.1198 11.3534 13.2387 10.6398 13.2714C9.86836 13.3064 9.63661 13.3141 7.68264 13.3141C5.72851 13.3141 5.49692 13.3064 4.72545 13.2714C4.01192 13.2384 3.62466 13.1192 3.36654 13.019C3.02502 12.8864 2.78108 12.7278 2.52494 12.4717C2.2688 12.2156 2.11024 11.9722 1.97729 11.6306C1.87712 11.3729 1.75775 10.9857 1.72527 10.2721C1.6902 9.50068 1.68319 9.26893 1.68319 7.31467C1.68319 5.36042 1.6902 5.12989 1.72527 4.35844C1.7579 3.64491 1.87712 3.25766 1.97729 2.99969C2.10994 2.65818 2.2688 2.41424 2.52494 2.1581C2.78108 1.90196 3.02502 1.7434 3.36654 1.61046C3.62451 1.50983 4.01192 1.39091 4.72545 1.35813C5.40056 1.32764 5.66219 1.31849 7.02613 1.31697V1.3188ZM11.5891 2.53392C11.1042 2.53392 10.7109 2.92682 10.7109 3.4118C10.7109 3.89663 11.1042 4.28998 11.5891 4.28998C12.0739 4.28998 12.4673 3.89663 12.4673 3.4118C12.4673 2.92697 12.0739 2.53362 11.5891 2.53362V2.53392ZM7.68264 3.55999C5.60715 3.55999 3.92441 5.24271 3.92441 7.31818C3.92441 9.39365 5.60715 11.0756 7.68264 11.0756C9.75813 11.0756 11.4403 9.39365 11.4403 7.31818C11.4403 5.24271 9.75797 3.55999 7.68249 3.55999H7.68264ZM7.68264 4.87879C9.02981 4.87879 10.1221 5.97087 10.1221 7.31818C10.1221 8.66534 9.02981 9.75758 7.68264 9.75758C6.33532 9.75758 5.24322 8.66534 5.24322 7.31818C5.24322 5.97087 6.33532 4.87879 7.68264 4.87879Z" fill="#435334"/>
</svg>
