<svg width="72" height="66" viewBox="0 0 72 66" fill="none" xmlns="http://www.w3.org/2000/svg">
<path d="M56 1.8125C56 1.18433 55.665 0.600947 55.1147 0.270697C54.5644 -0.0595522 53.8772 -0.0895744 53.2985 0.191353L23.4319 14.6914C22.7995 14.9984 22.4 15.626 22.4 16.3125V27.6936L1.27637 34.5305C0.514136 34.7772 0 35.4698 0 36.25V56.1875C0 57.1885 0.835735 58 1.86667 58H35.4667C36.4976 58 37.3333 57.1885 37.3333 56.1875V50.75H41.0667V56.1875C41.0667 57.1885 41.9024 58 42.9333 58H54.1333C55.1643 58 56 57.1885 56 56.1875V1.8125ZM7.46667 39.875H11.2V43.5H7.46667V39.875ZM14.9333 39.875H18.6667V43.5H14.9333V39.875ZM11.2 47.125V50.75H7.46667V47.125H11.2ZM14.9333 47.125H18.6667V50.75H14.9333V47.125ZM48.5333 10.875V14.5H44.8V10.875H48.5333ZM29.8667 18.125H33.6V21.75H29.8667V18.125ZM33.6 25.375V29H29.8667V25.375H33.6ZM29.8667 32.625H33.6V36.25H29.8667V32.625ZM37.3333 32.625H41.0667V36.25H37.3333V32.625ZM33.6 39.875V43.5H29.8667V39.875H33.6ZM37.3333 39.875H41.0667V43.5H37.3333V39.875ZM48.5333 32.625V36.25H44.8V32.625H48.5333ZM44.8 39.875H48.5333V43.5H44.8V39.875ZM37.3333 25.375H41.0667V29H37.3333V25.375ZM48.5333 25.375V29H44.8V25.375H48.5333ZM41.0667 18.125V21.75H37.3333V18.125H41.0667ZM44.8 18.125H48.5333V21.75H44.8V18.125Z" fill="#435334"/>
<path d="M52.4615 43.4C51.143 43.4 50 44.4344 50 45.8V47.2C50 48.4717 50.9912 49.4562 52.1923 49.5856V61.2C52.1923 63.3388 53.9897 65 56.1154 65H64.8846C67.0103 65 68.8077 63.3388 68.8077 61.2V49.5856C70.0088 49.4562 71 48.4717 71 47.2V45.8C71 44.4344 69.857 43.4 68.5385 43.4H64.2016C63.8069 42.5601 62.9317 42 61.9615 42H59.0385C58.0683 42 57.1931 42.5601 56.7984 43.4H52.4615Z" fill="#435334" stroke="white" stroke-width="2"/>
</svg>
