<svg width="18" height="15" viewBox="0 0 18 15" fill="none" xmlns="http://www.w3.org/2000/svg">
<path d="M5.4734 14.6364C12.0485 14.6364 15.6463 9.00367 15.6463 4.12728C15.6463 3.96882 15.6463 3.81035 15.6393 3.65189C16.3365 3.13328 16.9431 2.47781 17.4242 1.73591C16.7828 2.03123 16.0925 2.22571 15.3674 2.31935C16.1064 1.86556 16.6712 1.13806 16.9431 0.273711C16.2529 0.698684 15.4859 1.00121 14.6701 1.16688C14.0147 0.446582 13.0874 0 12.0624 0C10.0892 0 8.48552 1.65667 8.48552 3.69511C8.48552 3.98322 8.52038 4.26414 8.57616 4.53785C5.60588 4.38659 2.97028 2.90999 1.20624 0.677076C0.899451 1.2245 0.725139 1.85836 0.725139 2.53543C0.725139 3.81756 1.35964 4.94842 2.31487 5.61109C1.72918 5.58948 1.17835 5.42381 0.697249 5.1501C0.697249 5.1645 0.697249 5.17891 0.697249 5.20052C0.697249 6.98685 1.93138 8.48506 3.56294 8.82359C3.26312 8.91003 2.94936 8.95325 2.62165 8.95325C2.39156 8.95325 2.16844 8.93164 1.9523 8.88842C2.40551 10.3578 3.73028 11.4239 5.29212 11.4527C4.06496 12.4467 2.52404 13.0373 0.850644 13.0373C0.564772 13.0373 0.278899 13.0229 0 12.9869C1.57578 14.0241 3.45835 14.6364 5.4734 14.6364Z" fill="#435334"/>
</svg>
