<svg width="31" height="32" viewBox="0 0 31 32" fill="none" xmlns="http://www.w3.org/2000/svg">
<path fill-rule="evenodd" clip-rule="evenodd" d="M13.1391 0.151731C7.30379 1.01627 2.42929 5.27853 0.615898 11.1023C0.207277 12.4145 -0.0516242 13.8817 0.00869765 14.5438L0.049234 14.989L2.10018 13.1541C4.48844 11.0174 6.68874 8.99729 10.0629 5.84343C12.985 3.11224 14.4179 1.80754 14.496 1.80754C14.6416 1.80754 14.6949 3.01745 14.581 3.74024C14.2982 5.53475 13.1209 7.43907 11.0106 9.51547C8.59938 11.8878 6.28157 13.4539 4.21144 14.1095C3.62487 14.2953 3.34727 14.5197 1.81823 16.0437L0.0885639 17.7676L0.158417 18.393C0.356031 20.1594 1.55583 23.0776 2.81765 24.861C3.90718 26.4008 3.84215 26.4352 3.76446 24.359C3.70377 22.7375 3.72597 22.4164 3.96666 21.4366C4.46636 19.4014 5.62286 17.5991 7.37931 16.1177C7.85983 15.7124 9.06736 14.8219 10.0627 14.1388C12.6388 12.3708 13.5695 11.6495 14.4957 10.7034C16.5447 8.61009 17.8374 6.04449 18.6156 2.52667C19.0135 0.728129 19.0203 0.365388 18.6585 0.282347C17.2754 -0.0351426 14.7965 -0.0937241 13.1391 0.151731ZM19.6039 0.859723C18.9657 4.08036 18.6254 5.28501 17.8924 6.91734C17.3522 8.12052 16.351 9.65208 15.486 10.5987L14.7727 11.3791L15.0489 11.5771C18.7975 14.2641 19.8511 16.1253 21.2747 22.5749C21.8858 25.3434 22.7488 27.5879 23.5749 28.5565L23.9392 28.9838L24.7222 28.395C26.3001 27.2081 28.2591 24.9684 29.0521 23.4445L29.3418 22.8879L28.3407 21.0616C27.7902 20.0571 27.2122 19.0108 27.0564 18.7365L26.7733 18.2378L26.1995 18.3544C25.4614 18.5046 24.7387 18.3115 24.181 17.8151C23.9123 17.5759 23.3638 16.679 22.6319 15.2825C19.7087 9.70381 19.7336 9.75701 20.0502 9.75701C20.1355 9.75701 20.931 11.0528 21.8182 12.6363C23.4337 15.5203 23.6082 15.737 23.9156 15.242C24.0155 15.0812 23.7159 14.4635 22.4461 12.211C21.5688 10.6548 20.8836 9.3286 20.9231 9.26366C21.1105 8.95644 21.3787 9.32163 22.6566 11.6235C24.4973 14.9396 24.4797 14.9116 24.6914 14.8693C25.2304 14.7616 25.1317 14.4887 23.513 11.6074C22.3235 9.49003 21.9493 8.7264 22.0509 8.62342C22.1484 8.5246 22.2244 8.52264 22.3174 8.61694C22.3888 8.68934 23.1397 9.97679 23.9859 11.4779C24.8321 12.979 25.5765 14.2247 25.6403 14.2463C25.704 14.2678 25.8625 14.2054 25.9925 14.1077C26.1808 13.9663 26.2022 13.885 26.0974 13.7086C26.0252 13.5868 25.8277 13.2395 25.6588 12.9368C25.4899 12.6341 25.0413 11.8361 24.6621 11.1635C24.2828 10.4908 23.8065 9.63777 23.6037 9.26782C23.4008 8.89786 23.177 8.50026 23.1062 8.3842C23.0116 8.22888 23.0193 8.13202 23.1359 8.0173C23.3471 7.80915 23.3589 7.82688 25.1218 10.9711C25.9297 12.4123 26.6473 13.6101 26.7163 13.6327C26.7855 13.6553 26.9448 13.5976 27.0705 13.5044C27.2876 13.3436 27.2178 13.1898 25.7021 10.487C24.8237 8.92073 24.0943 7.5791 24.0811 7.50572C24.0681 7.43222 24.1225 7.37217 24.2021 7.37217C24.3422 7.37217 24.8099 8.0935 27.096 11.8361C28.8917 14.7757 28.8791 14.7498 28.8791 15.5051C28.8791 16.0222 28.8009 16.3163 28.547 16.7556C28.3643 17.0716 28.129 17.3788 28.0239 17.4384C27.8626 17.53 27.9974 17.8323 28.8954 19.3918C29.4798 20.4065 29.9958 21.2129 30.0421 21.1839C30.0883 21.155 30.2367 20.7597 30.3717 20.3055C31.1874 17.5624 31.2103 14.1695 30.4319 11.4081C30.0789 10.1561 29.0756 7.95799 28.3781 6.90854C27.3834 5.41196 25.6229 3.63201 24.1411 2.62475C22.8978 1.77966 20.3436 0.584549 19.7806 0.584549C19.7134 0.584549 19.6339 0.708316 19.6039 0.859723ZM13.0077 12.8506C12.3714 13.3353 11.0413 14.2801 10.0519 14.9503C7.17554 16.8989 5.46867 18.7869 4.82407 20.733C4.30506 22.3001 4.2451 23.6926 4.58966 26.1727C4.71356 27.0646 4.7506 27.1453 5.25127 27.6131C6.02786 28.3387 8.05431 29.6498 9.12852 30.1215C10.1634 30.5758 12.0156 31.1493 12.5885 31.1926L12.9581 31.2206L12.9908 28.8079L13.0235 26.3951L12.6289 26.2271C11.8336 25.8883 11.0129 24.7552 10.532 23.3323C10.1901 22.3207 10.222 19.524 10.587 18.5112C10.9619 17.4708 11.3686 16.8215 11.9956 16.2621C13.6196 14.813 15.5886 15.6678 16.5988 18.2604C16.9108 19.0612 16.9309 19.228 16.9309 21.0086C16.9309 22.7785 16.9094 22.9594 16.6065 23.736C16.1875 24.81 15.6405 25.5735 14.9649 26.027C14.6679 26.2265 14.392 26.3897 14.3518 26.3897C14.2111 26.3897 14.3664 31.3377 14.5103 31.4426C14.7303 31.6026 17.2961 31.4223 18.5853 31.1559C19.9532 30.8733 21.168 30.4525 22.3683 29.8456C22.8328 29.6108 23.2306 29.4024 23.2524 29.3827C23.2741 29.3629 23.0975 29.0602 22.86 28.71C21.8101 27.163 21.3875 25.9161 20.1667 20.764C19.5368 18.1062 19.0921 16.9381 18.1944 15.5842C17.3327 14.2844 15.713 12.7318 14.623 12.1607C14.4105 12.0494 14.2205 11.9609 14.2007 11.9639C14.1808 11.967 13.644 12.3659 13.0077 12.8506ZM20.2895 31.978C20.4069 32.009 20.5698 32.007 20.6515 31.9735C20.7331 31.9399 20.6371 31.9146 20.438 31.9171C20.239 31.9195 20.1721 31.9469 20.2895 31.978Z" fill="#435334"/>
</svg>
