<svg width="43" height="37" viewBox="0 0 43 37" fill="none" xmlns="http://www.w3.org/2000/svg">
<path d="M32.3507 36.1151C28.2976 36.1151 25.0119 32.8294 25.0119 28.7762V23.4453C25.0119 16.8868 26.5096 11.5207 29.505 7.34716C31.7786 4.10402 34.8574 1.71954 38.7414 0.193741C40.7106 -0.579815 42.685 1.00819 42.685 3.12385C42.685 4.64193 41.6298 5.92133 40.2363 6.52348C38.2608 7.37709 36.7306 8.59567 35.6457 10.1792C34.7344 11.4489 34.0265 12.9393 33.5218 14.6504C32.9724 16.5133 34.5116 18.2283 36.4538 18.2283C38.2408 18.2283 39.6895 19.677 39.6895 21.464V28.7762C39.6895 32.8294 36.4038 36.1151 32.3507 36.1151ZM7.26393 36.1151C3.25217 36.1151 0 32.8629 0 28.8511V23.4453C0 16.8868 1.44779 11.5207 4.34338 7.34716C6.61466 4.10721 9.68963 1.72424 13.5683 0.198251C15.543 -0.578642 17.5233 1.01421 17.5233 3.13619C17.5233 4.64951 16.4775 5.92819 15.0939 6.54133C13.1698 7.39405 11.6332 8.60668 10.484 10.1792C9.55336 11.4759 8.85402 13.0029 8.38599 14.76C7.89908 16.5881 9.41977 18.2283 11.3116 18.2283C13.0879 18.2283 14.5279 19.6683 14.5279 21.4446V28.8511C14.5279 32.8629 11.2757 36.1151 7.26393 36.1151Z" fill="#435334"/>
</svg>
