<svg width="22" height="19" viewBox="0 0 22 19" fill="none" xmlns="http://www.w3.org/2000/svg">
<path d="M5.32631 0C7.41531 0 9.10877 1.69346 9.10877 3.78246V6.48595C9.10877 9.84338 8.33684 12.5904 6.79298 14.7269C5.61836 16.3912 4.02668 17.6137 2.01795 18.3946C1.00914 18.7867 0 17.9738 0 16.8914C0 16.1131 0.541471 15.4572 1.25698 15.1508C2.27762 14.7137 3.06799 14.0891 3.62807 13.2771C4.09553 12.6302 4.45919 11.8714 4.71906 11.0006C5.00535 10.0413 4.21198 9.15663 3.21085 9.15663C2.2902 9.15663 1.54386 8.41029 1.54386 7.48964V3.78246C1.54386 1.69346 3.23732 0 5.32631 0ZM18.2561 0C20.3238 0 22 1.67618 22 3.74386V6.48595C22 9.84338 21.2538 12.5904 19.7614 14.7269C18.5879 16.3896 16.9982 17.6113 14.9922 18.3923C13.9806 18.7861 12.9684 17.9707 12.9684 16.8852C12.9684 16.1092 13.5052 15.4537 14.2156 15.1416C15.2096 14.705 16.0032 14.0835 16.5965 13.2771C17.074 12.6163 17.4334 11.8386 17.6746 10.9441C17.9285 10.0026 17.1446 9.15663 16.1694 9.15663C15.2542 9.15663 14.5123 8.4147 14.5123 7.49948V3.74386C14.5123 1.67618 16.1885 0 18.2561 0Z" fill="#435334"/>
</svg>
