<svg width="66" height="83" viewBox="0 0 66 83" fill="none" xmlns="http://www.w3.org/2000/svg">
<mask id="mask0_616_552" style="mask-type:alpha" maskUnits="userSpaceOnUse" x="0" y="0" width="66" height="83">
<rect width="66" height="82.0976" fill="#D9D9D9"/>
</mask>
<g mask="url(#mask0_616_552)">
<path d="M25.7557 39.4399C27.0893 39.4398 28.1704 40.5208 28.1705 41.8544C28.1706 43.1879 27.0896 44.2691 25.756 44.2691L25.7557 39.4399ZM22.4388 43.5621C21.4958 42.6191 21.4957 41.0903 22.4386 40.1473L37.8044 24.7798C38.7474 23.8368 40.2762 23.8367 41.2193 24.7796C42.1623 25.7226 42.1624 27.2514 41.2194 28.1945L27.5609 41.8544L41.2209 55.5129C42.1639 56.4558 42.164 57.9847 41.221 58.9277C40.2781 59.8708 38.7492 59.8708 37.8062 58.9279L22.4388 43.5621ZM25.756 44.2691L24.1462 44.2692L24.146 39.4399L25.7557 39.4399L25.756 44.2691Z" fill="#435334"/>
</g>
</svg>
