<svg width="50" height="49" viewBox="0 0 50 49" fill="none" xmlns="http://www.w3.org/2000/svg">
<path d="M0 1.63333C0 0.731268 0.746192 0 1.66667 0H6.66667C7.43144 0 8.09808 0.510086 8.28357 1.23719L9.63463 6.53333H48.3333C48.8291 6.53333 49.2992 6.74966 49.6158 7.12356C49.9325 7.49746 50.0628 7.9901 49.9714 8.46767L44.9714 34.601C44.8236 35.3735 44.1353 35.9333 43.3333 35.9333H40H16.6667H13.3333C12.5313 35.9333 11.843 35.3735 11.6952 34.601L6.70437 8.51555L5.36537 3.26667H1.66667C0.746192 3.26667 0 2.5354 0 1.63333ZM16.6667 35.9333C12.9848 35.9333 10 38.8584 10 42.4667C10 46.0749 12.9848 49 16.6667 49C20.3486 49 23.3333 46.0749 23.3333 42.4667C23.3333 38.8584 20.3486 35.9333 16.6667 35.9333ZM40 35.9333C36.3181 35.9333 33.3333 38.8584 33.3333 42.4667C33.3333 46.0749 36.3181 49 40 49C43.6819 49 46.6667 46.0749 46.6667 42.4667C46.6667 38.8584 43.6819 35.9333 40 35.9333ZM16.6667 39.2C18.5076 39.2 20 40.6625 20 42.4667C20 44.2708 18.5076 45.7333 16.6667 45.7333C14.8257 45.7333 13.3333 44.2708 13.3333 42.4667C13.3333 40.6625 14.8257 39.2 16.6667 39.2ZM40 39.2C41.8409 39.2 43.3333 40.6625 43.3333 42.4667C43.3333 44.2708 41.8409 45.7333 40 45.7333C38.159 45.7333 36.6667 44.2708 36.6667 42.4667C36.6667 40.6625 38.159 39.2 40 39.2Z" fill="#3A855D"/>
</svg>
