<svg width="220" height="52" viewBox="0 0 220 52" fill="none" xmlns="http://www.w3.org/2000/svg">
<path fill-rule="evenodd" clip-rule="evenodd" d="M21.6159 0.246563C12.0159 1.65143 3.99658 8.57761 1.01325 18.0413C0.341004 20.1735 -0.0849302 22.5577 0.014309 23.6337L0.0809978 24.3571L3.45513 21.3755C7.38421 17.9033 11.0041 14.6206 16.5551 9.49557C21.3625 5.05738 23.7198 2.93726 23.8482 2.93726C24.0878 2.93726 24.1755 4.90336 23.9881 6.0779C23.5229 8.99396 21.5859 12.0885 18.1142 15.4626C14.1474 19.3177 10.3342 21.8626 6.9285 22.928C5.9635 23.2299 5.5068 23.5946 2.99129 26.071L0.145702 28.8724L0.260621 29.8885C0.585729 32.7591 2.5596 37.5012 4.63548 40.3991C6.42794 42.9012 6.32096 42.9573 6.19314 39.5833C6.09331 36.9485 6.12983 36.4266 6.52579 34.8345C7.34789 31.5273 9.2505 28.5985 12.1402 26.1912C12.9307 25.5326 14.9173 24.0856 16.5547 22.9755C20.7928 20.1025 22.3241 18.9304 23.8478 17.393C27.2188 13.9914 29.3455 9.8223 30.6256 4.10583C31.2802 1.18321 31.2915 0.593756 30.6963 0.458814C28.4207 -0.0571068 24.3426 -0.152302 21.6159 0.246563ZM32.2516 1.39705C31.2016 6.63058 30.6417 8.58814 29.436 11.2407C28.5472 13.1959 26.9 15.6846 25.4769 17.2229L24.3035 18.491L24.7578 18.8127C30.9249 23.1792 32.6583 26.2036 35.0003 36.6842C36.0056 41.183 37.4255 44.8304 38.7845 46.4044L39.3839 47.0987L40.672 46.1418C43.2679 44.2131 46.4908 40.5736 47.7954 38.0974L48.272 37.1929L46.625 34.2252C45.7193 32.5928 44.7684 30.8926 44.5122 30.4468L44.0464 29.6363L43.1024 29.8259C41.8881 30.07 40.6992 29.7562 39.7817 28.9495C39.3396 28.5608 38.4372 27.1034 37.2332 24.8341C32.4241 15.7687 32.4649 15.8551 32.9858 15.8551C33.1261 15.8551 34.4348 17.9608 35.8945 20.534C38.5523 25.2204 38.8393 25.5726 39.345 24.7683C39.5093 24.507 39.0165 23.5031 36.9275 19.8428C35.4842 17.3141 34.3568 15.159 34.4219 15.0534C34.7302 14.5542 35.1714 15.1476 37.2737 18.8883C40.3021 24.2768 40.2731 24.2313 40.6214 24.1625C41.508 23.9877 41.3457 23.5441 38.6827 18.862C36.7257 15.4213 36.1102 14.1804 36.2773 14.0131C36.4377 13.8525 36.5627 13.8493 36.7158 14.0025C36.8333 14.1202 38.0686 16.2123 39.4607 18.6516C40.8528 21.0909 42.0775 23.1152 42.1824 23.1502C42.2872 23.1852 42.548 23.0838 42.7618 22.925C43.0716 22.6953 43.1068 22.5631 42.9345 22.2765C42.8156 22.0786 42.4907 21.5142 42.2128 21.0223C41.9349 20.5304 41.197 19.2337 40.5732 18.1406C39.9492 17.0476 39.1656 15.6614 38.8319 15.0602C38.4981 14.459 38.1299 13.8129 38.0134 13.6243C37.8578 13.3719 37.8705 13.2145 38.0622 13.0281C38.4098 12.6899 38.4292 12.7187 41.3294 17.828C42.6586 20.1699 43.8391 22.1163 43.9527 22.1531C44.0664 22.1899 44.3286 22.0961 44.5354 21.9446C44.8925 21.6833 44.7778 21.4335 42.2841 17.0414C40.8389 14.4962 39.6389 12.316 39.6173 12.1968C39.5959 12.0774 39.6854 11.9798 39.8164 11.9798C40.0468 11.9798 40.8163 13.1519 44.5773 19.2337C47.5314 24.0105 47.5108 23.9684 47.5108 25.1958C47.5108 26.036 47.3822 26.514 46.9644 27.2279C46.6639 27.7414 46.2767 28.2406 46.1038 28.3374C45.8384 28.4863 46.0603 28.9775 47.5376 31.5116C48.499 33.1605 49.3479 34.471 49.4241 34.4239C49.5001 34.3768 49.7443 33.7345 49.9664 32.9964C51.3083 28.5389 51.346 23.0254 50.0654 18.5381C49.4847 16.5036 47.8341 12.9317 46.6865 11.2264C45.0501 8.79443 42.1539 5.90201 39.716 4.26522C37.6706 2.89195 33.4684 0.949892 32.5423 0.949892C32.4318 0.949892 32.301 1.15101 32.2516 1.39705ZM21.3998 20.8822C20.353 21.6698 18.1648 23.2052 16.537 24.2943C11.8049 27.4608 8.99685 30.5287 7.93638 33.6912C7.08252 36.2376 6.98388 38.5004 7.55073 42.5306C7.75457 43.98 7.8155 44.1111 8.63919 44.8713C9.9168 46.0504 13.2506 48.1809 15.0179 48.9474C16.7204 49.6857 19.7677 50.6176 20.7101 50.6879L21.3182 50.7334L21.372 46.8128L21.4258 42.8921L20.7765 42.619C19.4682 42.0685 18.1179 40.2272 17.3268 37.9149C16.7643 36.2712 16.8169 31.7265 17.4173 30.0807C18.0342 28.3901 18.7032 27.335 19.7347 26.426C22.4065 24.0711 25.6458 25.4601 27.3077 29.6731C27.8209 30.9744 27.8541 31.2455 27.8541 34.1389C27.8541 37.015 27.8188 37.309 27.3204 38.571C26.6311 40.3163 25.7312 41.557 24.6197 42.2939C24.131 42.618 23.6771 42.8833 23.611 42.8833C23.3796 42.8833 23.635 50.9238 23.8718 51.0942C24.2336 51.3543 28.4549 51.0612 30.5758 50.6283C32.8262 50.169 34.8249 49.4854 36.7995 48.4991C37.5637 48.1175 38.218 47.7788 38.254 47.7468C38.2897 47.7146 37.9991 47.2228 37.6083 46.6538C35.8812 44.14 35.1859 42.1136 33.1775 33.7415C32.1412 29.4225 31.4096 27.5244 29.9328 25.3244C28.515 23.2122 25.8505 20.6892 24.0572 19.7611C23.7077 19.5803 23.3951 19.4364 23.3625 19.4414C23.3298 19.4463 22.4465 20.0946 21.3998 20.8822ZM33.3795 51.9642C33.5727 52.0147 33.8406 52.0113 33.975 51.9569C34.1093 51.9024 33.9513 51.8613 33.6239 51.8653C33.2964 51.8692 33.1864 51.9137 33.3795 51.9642Z" fill="#435334"/>
<path d="M68.16 38V15.65H76.47C77.99 15.65 79.33 15.93 80.49 16.49C81.67 17.03 82.59 17.83 83.25 18.89C83.91 19.93 84.24 21.2 84.24 22.7C84.24 24.24 83.87 25.55 83.13 26.63C82.41 27.71 81.43 28.51 80.19 29.03L85.32 38H80.7L75.21 28.19L77.85 29.75H72.24V38H68.16ZM72.24 26.15H76.53C77.27 26.15 77.91 26.01 78.45 25.73C78.99 25.43 79.41 25.02 79.71 24.5C80.01 23.98 80.16 23.38 80.16 22.7C80.16 22 80.01 21.4 79.71 20.9C79.41 20.38 78.99 19.98 78.45 19.7C77.91 19.4 77.27 19.25 76.53 19.25H72.24V26.15ZM94.4958 38.36C92.8158 38.36 91.3458 37.98 90.0858 37.22C88.8258 36.46 87.8458 35.43 87.1458 34.13C86.4458 32.83 86.0958 31.39 86.0958 29.81C86.0958 28.17 86.4458 26.72 87.1458 25.46C87.8658 24.18 88.8358 23.17 90.0558 22.43C91.2958 21.69 92.6758 21.32 94.1958 21.32C95.4758 21.32 96.5958 21.53 97.5558 21.95C98.5358 22.37 99.3658 22.95 100.046 23.69C100.726 24.43 101.246 25.28 101.606 26.24C101.966 27.18 102.146 28.2 102.146 29.3C102.146 29.58 102.126 29.87 102.086 30.17C102.066 30.47 102.016 30.73 101.936 30.95H89.3358V27.95H99.7158L97.8558 29.36C98.0358 28.44 97.9858 27.62 97.7058 26.9C97.4458 26.18 97.0058 25.61 96.3858 25.19C95.7858 24.77 95.0558 24.56 94.1958 24.56C93.3758 24.56 92.6458 24.77 92.0058 25.19C91.3658 25.59 90.8758 26.19 90.5358 26.99C90.2158 27.77 90.0958 28.72 90.1758 29.84C90.0958 30.84 90.2258 31.73 90.5658 32.51C90.9258 33.27 91.4458 33.86 92.1258 34.28C92.8258 34.7 93.6258 34.91 94.5258 34.91C95.4258 34.91 96.1858 34.72 96.8058 34.34C97.4458 33.96 97.9458 33.45 98.3058 32.81L101.486 34.37C101.166 35.15 100.666 35.84 99.9858 36.44C99.3058 37.04 98.4958 37.51 97.5558 37.85C96.6358 38.19 95.6158 38.36 94.4958 38.36ZM111.335 38.36C109.595 38.36 108.075 37.95 106.775 37.13C105.495 36.29 104.615 35.16 104.135 33.74L107.075 32.33C107.495 33.25 108.075 33.97 108.815 34.49C109.575 35.01 110.415 35.27 111.335 35.27C112.055 35.27 112.625 35.11 113.045 34.79C113.465 34.47 113.675 34.05 113.675 33.53C113.675 33.21 113.585 32.95 113.405 32.75C113.245 32.53 113.015 32.35 112.715 32.21C112.435 32.05 112.125 31.92 111.785 31.82L109.115 31.07C107.735 30.67 106.685 30.06 105.965 29.24C105.265 28.42 104.915 27.45 104.915 26.33C104.915 25.33 105.165 24.46 105.665 23.72C106.185 22.96 106.895 22.37 107.795 21.95C108.715 21.53 109.765 21.32 110.945 21.32C112.485 21.32 113.845 21.69 115.025 22.43C116.205 23.17 117.045 24.21 117.545 25.55L114.545 26.96C114.265 26.22 113.795 25.63 113.135 25.19C112.475 24.75 111.735 24.53 110.915 24.53C110.255 24.53 109.735 24.68 109.355 24.98C108.975 25.28 108.785 25.67 108.785 26.15C108.785 26.45 108.865 26.71 109.025 26.93C109.185 27.15 109.405 27.33 109.685 27.47C109.985 27.61 110.325 27.74 110.705 27.86L113.315 28.64C114.655 29.04 115.685 29.64 116.405 30.44C117.145 31.24 117.515 32.22 117.515 33.38C117.515 34.36 117.255 35.23 116.735 35.99C116.215 36.73 115.495 37.31 114.575 37.73C113.655 38.15 112.575 38.36 111.335 38.36ZM131.875 38.36C130.235 38.36 128.705 38.07 127.285 37.49C125.865 36.91 124.625 36.1 123.565 35.06C122.505 34.02 121.675 32.8 121.075 31.4C120.495 29.98 120.205 28.45 120.205 26.81C120.205 25.15 120.495 23.62 121.075 22.22C121.655 20.82 122.475 19.6 123.535 18.56C124.595 17.52 125.835 16.72 127.255 16.16C128.675 15.58 130.215 15.29 131.875 15.29C133.535 15.29 135.075 15.58 136.495 16.16C137.915 16.74 139.155 17.55 140.215 18.59C141.275 19.61 142.095 20.82 142.675 22.22C143.275 23.62 143.575 25.15 143.575 26.81C143.575 28.45 143.275 29.98 142.675 31.4C142.075 32.8 141.245 34.02 140.185 35.06C139.125 36.1 137.885 36.91 136.465 37.49C135.065 38.07 133.535 38.36 131.875 38.36ZM131.875 34.64C132.975 34.64 133.985 34.45 134.905 34.07C135.825 33.67 136.625 33.12 137.305 32.42C138.005 31.72 138.535 30.89 138.895 29.93C139.275 28.97 139.465 27.93 139.465 26.81C139.465 25.69 139.275 24.66 138.895 23.72C138.535 22.76 138.005 21.93 137.305 21.23C136.625 20.51 135.825 19.96 134.905 19.58C133.985 19.2 132.975 19.01 131.875 19.01C130.795 19.01 129.795 19.2 128.875 19.58C127.955 19.96 127.145 20.51 126.445 21.23C125.765 21.93 125.235 22.76 124.855 23.72C124.475 24.66 124.285 25.69 124.285 26.81C124.285 27.93 124.475 28.97 124.855 29.93C125.235 30.89 125.765 31.72 126.445 32.42C127.145 33.12 127.955 33.67 128.875 34.07C129.795 34.45 130.795 34.64 131.875 34.64ZM137.035 40.7L130.075 29.06H134.335L141.385 40.7H137.035ZM147.203 38V15.65H156.623C158.103 15.65 159.363 15.91 160.403 16.43C161.463 16.93 162.273 17.65 162.833 18.59C163.413 19.51 163.703 20.63 163.703 21.95C163.703 22.97 163.423 23.93 162.863 24.83C162.323 25.71 161.453 26.44 160.253 27.02V25.13C161.353 25.55 162.223 26.07 162.863 26.69C163.503 27.31 163.953 28 164.213 28.76C164.473 29.52 164.603 30.32 164.603 31.16C164.603 33.3 163.893 34.98 162.473 36.2C161.073 37.4 159.123 38 156.623 38H147.203ZM151.283 34.4H157.043C158.103 34.4 158.943 34.11 159.563 33.53C160.203 32.93 160.523 32.14 160.523 31.16C160.523 30.18 160.203 29.39 159.563 28.79C158.943 28.19 158.103 27.89 157.043 27.89H151.283V34.4ZM151.283 24.32H156.833C157.673 24.32 158.343 24.08 158.843 23.6C159.343 23.1 159.593 22.46 159.593 21.68C159.593 20.9 159.343 20.28 158.843 19.82C158.343 19.36 157.673 19.13 156.833 19.13H151.283V24.32ZM167.615 38V21.68H171.545V38H167.615ZM167.615 19.85V15.65H171.545V19.85H167.615ZM182.614 38.18C180.774 38.18 179.344 37.68 178.324 36.68C177.324 35.66 176.824 34.23 176.824 32.39V25.19H174.004V21.68H174.304C175.104 21.68 175.724 21.47 176.164 21.05C176.604 20.63 176.824 20.02 176.824 19.22V17.96H180.754V21.68H184.504V25.19H180.754V32.18C180.754 32.72 180.844 33.18 181.024 33.56C181.224 33.94 181.524 34.23 181.924 34.43C182.344 34.63 182.874 34.73 183.514 34.73C183.654 34.73 183.814 34.72 183.994 34.7C184.194 34.68 184.384 34.66 184.564 34.64V38C184.284 38.04 183.964 38.08 183.604 38.12C183.244 38.16 182.914 38.18 182.614 38.18ZM195.16 38.36C193.48 38.36 192.01 37.98 190.75 37.22C189.49 36.46 188.51 35.43 187.81 34.13C187.11 32.83 186.76 31.39 186.76 29.81C186.76 28.17 187.11 26.72 187.81 25.46C188.53 24.18 189.5 23.17 190.72 22.43C191.96 21.69 193.34 21.32 194.86 21.32C196.14 21.32 197.26 21.53 198.22 21.95C199.2 22.37 200.03 22.95 200.71 23.69C201.39 24.43 201.91 25.28 202.27 26.24C202.63 27.18 202.81 28.2 202.81 29.3C202.81 29.58 202.79 29.87 202.75 30.17C202.73 30.47 202.68 30.73 202.6 30.95H190V27.95H200.38L198.52 29.36C198.7 28.44 198.65 27.62 198.37 26.9C198.11 26.18 197.67 25.61 197.05 25.19C196.45 24.77 195.72 24.56 194.86 24.56C194.04 24.56 193.31 24.77 192.67 25.19C192.03 25.59 191.54 26.19 191.2 26.99C190.88 27.77 190.76 28.72 190.84 29.84C190.76 30.84 190.89 31.73 191.23 32.51C191.59 33.27 192.11 33.86 192.79 34.28C193.49 34.7 194.29 34.91 195.19 34.91C196.09 34.91 196.85 34.72 197.47 34.34C198.11 33.96 198.61 33.45 198.97 32.81L202.15 34.37C201.83 35.15 201.33 35.84 200.65 36.44C199.97 37.04 199.16 37.51 198.22 37.85C197.3 38.19 196.28 38.36 195.16 38.36ZM211.999 38.36C210.259 38.36 208.739 37.95 207.439 37.13C206.159 36.29 205.279 35.16 204.799 33.74L207.739 32.33C208.159 33.25 208.739 33.97 209.479 34.49C210.239 35.01 211.079 35.27 211.999 35.27C212.719 35.27 213.289 35.11 213.709 34.79C214.129 34.47 214.339 34.05 214.339 33.53C214.339 33.21 214.249 32.95 214.069 32.75C213.909 32.53 213.679 32.35 213.379 32.21C213.099 32.05 212.789 31.92 212.449 31.82L209.779 31.07C208.399 30.67 207.349 30.06 206.629 29.24C205.929 28.42 205.579 27.45 205.579 26.33C205.579 25.33 205.829 24.46 206.329 23.72C206.849 22.96 207.559 22.37 208.459 21.95C209.379 21.53 210.429 21.32 211.609 21.32C213.149 21.32 214.509 21.69 215.689 22.43C216.869 23.17 217.709 24.21 218.209 25.55L215.209 26.96C214.929 26.22 214.459 25.63 213.799 25.19C213.139 24.75 212.399 24.53 211.579 24.53C210.919 24.53 210.399 24.68 210.019 24.98C209.639 25.28 209.449 25.67 209.449 26.15C209.449 26.45 209.529 26.71 209.689 26.93C209.849 27.15 210.069 27.33 210.349 27.47C210.649 27.61 210.989 27.74 211.369 27.86L213.979 28.64C215.319 29.04 216.349 29.64 217.069 30.44C217.809 31.24 218.179 32.22 218.179 33.38C218.179 34.36 217.919 35.23 217.399 35.99C216.879 36.73 216.159 37.31 215.239 37.73C214.319 38.15 213.239 38.36 211.999 38.36Z" fill="#435334"/>
</svg>
