<svg width="80" height="58" viewBox="0 0 80 58" fill="none" xmlns="http://www.w3.org/2000/svg">
<path d="M35 58C35 58 30 58 30 53.1667C30 48.3333 35 33.8333 55 33.8333C75 33.8333 80 48.3333 80 53.1667C80 58 75 58 75 58H35Z" fill="#435334"/>
<path d="M55 29C63.2843 29 70 22.5081 70 14.5C70 6.49187 63.2843 0 55 0C46.7157 0 40 6.49187 40 14.5C40 22.5081 46.7157 29 55 29Z" fill="#435334"/>
<path d="M26.0818 58C25.3778 56.6269 25 54.9992 25 53.1667C25 46.6153 28.3953 39.8777 34.6796 35.1865C31.9305 34.3365 28.7255 33.8333 25 33.8333C5 33.8333 0 48.3333 0 53.1667C0 58 5 58 5 58H26.0818Z" fill="#435334"/>
<path d="M22.5 29C29.4036 29 35 23.5901 35 16.9167C35 10.2432 29.4036 4.83333 22.5 4.83333C15.5964 4.83333 10 10.2432 10 16.9167C10 23.5901 15.5964 29 22.5 29Z" fill="#435334"/>
</svg>
