<svg width="66" height="50" viewBox="0 0 66 50" fill="none" xmlns="http://www.w3.org/2000/svg">
<path d="M28.875 50C28.875 50 24.75 50 24.75 45.8333C24.75 41.6667 28.875 29.1667 45.375 29.1667C61.875 29.1667 66 41.6667 66 45.8333C66 50 61.875 50 61.875 50H28.875Z" fill="#435334"/>
<path d="M45.375 25C52.2095 25 57.75 19.4036 57.75 12.5C57.75 5.59644 52.2095 0 45.375 0C38.5405 0 33 5.59644 33 12.5C33 19.4036 38.5405 25 45.375 25Z" fill="#435334"/>
<path d="M21.5175 50C20.9367 48.8163 20.625 47.4131 20.625 45.8333C20.625 40.1856 23.4261 34.3773 28.6107 30.3332C26.3426 29.6004 23.6985 29.1667 20.625 29.1667C4.125 29.1667 0 41.6667 0 45.8333C0 50 4.125 50 4.125 50H21.5175Z" fill="#435334"/>
<path d="M18.5625 25C24.2579 25 28.875 20.3363 28.875 14.5833C28.875 8.83037 24.2579 4.16667 18.5625 4.16667C12.8671 4.16667 8.25 8.83037 8.25 14.5833C8.25 20.3363 12.8671 25 18.5625 25Z" fill="#435334"/>
</svg>
