<svg width="47" height="47" viewBox="0 0 47 47" fill="none" xmlns="http://www.w3.org/2000/svg">
<path d="M34.4926 30.3852C36.8154 27.2227 38.1875 23.3185 38.1875 19.0937C38.1875 8.54856 29.6389 0 19.0937 0C8.54856 0 0 8.54856 0 19.0937C0 29.6389 8.54856 38.1875 19.0937 38.1875C23.3196 38.1875 27.2248 36.8147 30.3877 34.4907L30.3852 34.4926C30.4718 34.6101 30.5683 34.7225 30.6746 34.8289L41.9854 46.1396C43.1325 47.2868 44.9925 47.2868 46.1396 46.1396C47.2868 44.9925 47.2868 43.1325 46.1396 41.9854L34.8289 30.6746C34.7225 30.5683 34.6101 30.4718 34.4926 30.3852ZM35.25 19.0937C35.25 28.0166 28.0166 35.25 19.0937 35.25C10.1709 35.25 2.9375 28.0166 2.9375 19.0937C2.9375 10.1709 10.1709 2.9375 19.0937 2.9375C28.0166 2.9375 35.25 10.1709 35.25 19.0937Z" fill="white"/>
</svg>
