<svg width="24" height="22" viewBox="0 0 24 22" fill="none" xmlns="http://www.w3.org/2000/svg">
<path d="M10.2835 1.33538C10.9725 -0.108355 13.0275 -0.108355 13.7165 1.33538L15.5877 5.25683C15.8649 5.83786 16.4173 6.23919 17.0556 6.32332L21.3633 6.89117C22.9493 7.10023 23.5843 9.05471 22.4242 10.1561L19.2729 13.1475C18.806 13.5907 18.595 14.2401 18.7122 14.8731L19.5033 19.1455C19.7946 20.7184 18.132 21.9264 16.726 21.1633L12.9072 19.0907C12.3414 18.7836 11.6586 18.7836 11.0928 19.0907L7.27397 21.1633C5.86801 21.9264 4.20543 20.7184 4.49669 19.1455L5.28781 14.8731C5.40503 14.2401 5.19404 13.5907 4.72712 13.1475L1.57585 10.1561C0.415655 9.05471 1.05071 7.10023 2.63667 6.89117L6.94443 6.32332C7.5827 6.23919 8.13507 5.83786 8.41233 5.25683L10.2835 1.33538Z" fill="#E7A711"/>
</svg>
