<svg width="22" height="15" viewBox="0 0 22 15" fill="none" xmlns="http://www.w3.org/2000/svg">
<path d="M11.4621 0C11.4696 1.57258e-05 11.4776 3.40725e-05 11.4862 5.5477e-05L11.5787 0.000342472C12.6526 0.00427392 18.0957 0.0435884 19.5632 0.436733C20.4629 0.677177 21.1713 1.38577 21.4117 2.28524C21.5441 2.77942 21.6364 3.43625 21.7007 4.11177L21.7132 4.24708C21.7233 4.35997 21.7326 4.47312 21.7413 4.58586L21.7513 4.7209C21.8372 5.91124 21.8472 7.02515 21.8484 7.26885L21.8485 7.30173C21.8485 7.30442 21.8485 7.30882 21.8485 7.30882V7.32728C21.8485 7.32728 21.8485 7.33168 21.8485 7.33437L21.8484 7.36725C21.8472 7.62017 21.8364 8.81024 21.7413 10.0503L21.7305 10.1858L21.7191 10.3213C21.6544 11.0669 21.5573 11.8073 21.4117 12.3509C21.1713 13.2503 20.4629 13.9591 19.5632 14.1994C18.0468 14.6058 12.2853 14.6342 11.4862 14.6362L11.4246 14.6363C11.4196 14.6363 11.4151 14.6364 11.4113 14.6364L11.3862 14.6364C11.3862 14.6364 11.3805 14.6364 11.3766 14.6364L11.3018 14.6362C10.8979 14.6352 9.2267 14.6274 7.47651 14.5676L7.25275 14.5596C7.21541 14.5583 7.17807 14.5569 7.14072 14.5554L6.9167 14.5466L6.69319 14.5372C5.24327 14.4738 3.86084 14.3698 3.22491 14.1994C2.32526 13.9591 1.61684 13.2503 1.3764 12.3509C1.23073 11.8073 1.13362 11.0669 1.06888 10.3213L1.05746 10.1858L1.04673 10.0503C0.954978 8.85533 0.941659 7.70678 0.939725 7.39852L0.939494 7.35439C0.939478 7.35041 0.939464 7.34676 0.939453 7.34342V7.29268C0.939464 7.28935 0.939478 7.28569 0.939494 7.28171L0.939725 7.23759C0.941476 6.95842 0.952566 5.99006 1.0228 4.92215L1.03189 4.78819C1.03346 4.76579 1.03506 4.74336 1.03668 4.7209L1.04673 4.58586C1.05539 4.47312 1.06474 4.35997 1.07485 4.24708L1.08735 4.11177C1.15168 3.43625 1.24397 2.77942 1.3764 2.28524C1.61684 1.38577 2.32526 0.677177 3.22491 0.436733C3.86084 0.26637 5.24327 0.162449 6.69319 0.0990571L6.9167 0.0896208L7.14072 0.080803C7.17807 0.0793837 7.21541 0.0779894 7.25275 0.0766195L7.47651 0.0686902C9.11498 0.0126435 10.6842 0.00226451 11.2093 0.000342472L11.3018 5.5477e-05C11.3104 3.40725e-05 11.3184 1.57258e-05 11.3258 0H11.4621ZM9.30313 4.1816V10.4545L14.7352 7.31822L9.30313 4.1816Z" fill="#435334"/>
</svg>
