<svg width="71" height="67" viewBox="0 0 71 67" fill="none" xmlns="http://www.w3.org/2000/svg">
<path d="M31.8899 2.56546C33.3389 -0.471024 37.6611 -0.471023 39.1101 2.56546L46.5177 18.0893C47.1008 19.3113 48.2626 20.1554 49.605 20.3324L66.6581 22.5803C69.9937 23.02 71.3294 27.1307 68.8892 29.447L56.4143 41.2892C55.4322 42.2214 54.9885 43.5872 55.235 44.9185L58.3668 61.8317C58.9794 65.1399 55.4826 67.6805 52.5256 66.0756L37.4081 57.8706C36.218 57.2247 34.782 57.2247 33.5919 57.8706L18.4744 66.0756C15.5174 67.6805 12.0206 65.1399 12.6332 61.8317L15.765 44.9185C16.0115 43.5871 15.5678 42.2214 14.5857 41.2892L2.11077 29.447C-0.329354 27.1307 1.00629 23.02 4.34191 22.5803L21.395 20.3324C22.7374 20.1554 23.8992 19.3113 24.4823 18.0893L31.8899 2.56546Z" fill="#E7A711"/>
</svg>
